#!OML:ASF I:\Actors\actors\Patient Classification 1\Patient 1\Session 1\Subject1.ASF
:FULLY-SPECIFIED
:DEGREES
270
root 0.0258482 18.5899 8.31423 8.55389 9.88175 -5.62483
lowerback -3.10448 3.2044 7.09342
upperback -5.85691 4.44792 4.55736
thorax -4.19773 2.04908 0.759215
lowerneck 0.915738 0.31154 -0.313752
upperneck 31.9195 1.01168 -0.818574
head 9.98293 0.493323 -0.131356
rclavicle -2.04748e-014 9.54166e-015
rhumerus -35.873 12.1196 -94.0527
rradius 145.973
rwrist -49.7358
rhand 62.3648 -70.5648
rfingers 7.12502
rthumb 74.9425 -29.5465
lclavicle -2.04748e-014 9.54166e-015
lhumerus -47.125 -22.0296 97.6435
lradius 145.302
lwrist 44.3885
lhand 68.782 -13.8731
lfingers 7.12502
lthumb 74.077 281.975
rfemur 0 0 0
rtibia 0
rfoot 0 0
rtoes 0
lfemur -18.2507 -43.0539 -2.74089
ltibia 21.1962
lfoot -31.7797 41.0571
ltoes -57.341
271
root 0.0198862 18.5908 8.31573 8.76434 10.2886 -5.40235
lowerback -3.30386 3.10936 7.45367
upperback -5.92298 4.29453 4.34871
thorax -4.12174 1.95286 0.355546
lowerneck 1.24634 0.854946 0.584217
upperneck 31.2628 1.72311 -0.917006
head 9.68564 0.919749 -0.271348
rclavicle -5.29761e-014 1.27222e-014
rhumerus -36.0102 11.9881 -93.3127
rradius 146.062
rwrist -49.7542
rhand 61.8729 -70.6957
rfingers 7.12502
rthumb 74.9006 -31.4966
lclavicle -5.29761e-014 1.27222e-014
lhumerus -47.1989 -22.0937 98.1582
lradius 145.153
lwrist 44.5227
lhand 68.8027 -13.6378
lfingers 7.12502
lthumb 74.0702 282.142
rfemur 0 0 0
rtibia 0
rfoot 0 0
rtoes 0
lfemur -18.5923 -42.4499 -2.7207
ltibia 21.0534
lfoot -30.6439 40.4717
ltoes -57.6942
272
root -0.00344005 18.5853 8.33398 8.41003 10.7542 -5.27865
lowerback -3.1425 2.97009 7.54287
upperback -5.80932 4.11024 4.17955
thorax -4.08171 1.85493 0.123589
lowerneck 1.45467 1.42681 1.52328
upperneck 30.7212 2.45188 -0.91114
head 9.46663 1.36691 -0.381887
rclavicle 3.08116e-015 8.42847e-014
rhumerus -36.1567 12.1104 -92.3065
rradius 146.152
rwrist -49.2818
rhand 62.0644 -70.2768
rfingers 7.12502
rthumb 74.9188 -30.3705
lclavicle 3.08116e-015 8.42847e-014
lhumerus -47.1997 -21.8347 98.802
lradius 145.07
lwrist 44.7125
lhand 68.9291 -13.2719
lfingers 7.12502
lthumb 74.0282 282.091
rfemur 0 0 0
rtibia 0
rfoot 0 0
rtoes 0
lfemur -18.1052 -42.2356 -3.08242
ltibia 20.9965
lfoot -29.9505 39.9461
ltoes -57.9554
273
root -0.0278072 18.5816 8.34747 8.21492 10.9319 -5.33811
lowerback -3.07517 2.95908 7.65183
upperback -5.7589 4.09118 3.99398
thorax -4.04641 1.83755 -0.130859
lowerneck 1.71396 2.04641 2.38726
upperneck 30.1861 3.19302 -0.645347
head 9.24773 1.83464 -0.390697
rclavicle 1.0635e-014 -3.02153e-014
rhumerus -36.2602 12.509 -91.0722
rradius 146.265
rwrist -48.7476
rhand 62.1989 -69.9478
rfingers 7.12502
rthumb 74.9301 -29.5438
lclavicle 1.0635e-014 -3.02153e-014
lhumerus -47.1707 -21.2362 99.5584
lradius 144.952
lwrist 44.8915
lhand 68.7979 -13.1694
lfingers 7.12502
lthumb 74.0718 282.626
rfemur 0 0 0
rtibia 0
rfoot 0 0
rtoes 0
lfemur -17.8807 -42.4315 -3.06351
ltibia 21.037
lfoot -30.1276 39.8721
ltoes -57.9153
274
root -0.0535981 18.5792 8.35719 8.07949 10.9334 -5.55075
lowerback -3.04862 3.03917 7.77294
upperback -5.7408 4.19025 3.76953
thorax -4.01184 1.87733 -0.4296
lowerneck 2.08367 2.66482 3.05739
upperneck 29.5934 3.83226 0.105441
head 8.98158 2.2758 -0.212085
rclavicle -3.8266e-014 -1.11319e-014
rhumerus -36.2752 13.007 -89.6392
rradius 146.411
rwrist -48.5748
rhand 61.9094 -70.1921
rfingers 7.12502
rthumb 74.9042 -30.8584
lclavicle -3.8266e-014 -1.11319e-014
lhumerus -47.1213 -20.4272 100.364
lradius 144.822
lwrist 45.1484
lhand 68.1925 -13.0069
lfingers 7.12502
lthumb 74.2608 284.817
rfemur 0 0 0
rtibia 0
rfoot 0 0
rtoes 0
lfemur -17.7627 -42.7752 -2.81728
ltibia 21.1419
lfoot -30.5887 40.0523
ltoes -57.8271
275
root -0.0799778 18.5786 8.35937 7.99229 10.8087 -5.87455
lowerback -3.00552 3.1708 7.90658
upperback -5.72315 4.35843 3.50568
thorax -3.97742 1.95015 -0.775944
lowerneck 2.20848 3.23452 3.87604
upperneck 29.2323 4.41892 0.772617
head 8.85179 2.6964 -0.0890462
rclavicle -7.8023e-015 6.36111e-015
rhumerus -36.1637 13.8022 -88.1696
rradius 146.497
rwrist -48.1913
rhand 61.9977 -70.2483
rfingers 7.12502
rthumb 74.9127 -30.5886
lclavicle -7.8023e-015 6.36111e-015
lhumerus -47.0334 -19.4723 101.119
lradius 144.725
lwrist 45.4069
lhand 67.8856 -13.1588
lfingers 7.12502
lthumb 74.3488 285.711
rfemur 0 0 0
rtibia 0
rfoot 0 0
rtoes 0
lfemur -17.7359 -43.0695 -2.40801
ltibia 21.2666
lfoot -31.0397 40.3317
ltoes -57.7574
276
root -0.103273 18.5818 8.352 8.14429 10.5119 -6.22194
lowerback -3.08004 3.35753 8.03877
upperback -5.78831 4.59083 3.16762
thorax -3.95132 2.05182 -1.19205
lowerneck 2.31266 3.78786 4.76694
upperneck 28.9433 5.02732 1.26565
head 8.76295 3.11631 -0.035913
rclavicle -2.10712e-014 5.56597e-015
rhumerus -35.9925 15.0296 -86.7846
rradius 146.542
rwrist -47.4028
rhand 62.19 -69.5214
rfingers 7.12502
rthumb 74.9294 -29.1505
lclavicle -2.10712e-014 5.56597e-015
lhumerus -46.9816 -18.4625 101.758
lradius 144.659
lwrist 45.6354
lhand 68.1646 -13.4774
lfingers 7.12502
lthumb 74.2691 284.441
rfemur 0 0 0
rtibia 0
rfoot 0 0
rtoes 0
lfemur -18.0807 -43.4157 -1.74807
ltibia 21.4004
lfoot -31.4796 40.9344
ltoes -57.7122
277
root -0.156431 18.575 8.38261 7.54851 10.6783 -6.44988
lowerback -2.90076 3.34501 7.57075
upperback -5.63527 4.5706 2.81089
thorax -3.89004 2.05659 -1.31216
lowerneck 2.53054 4.24121 5.62554
upperneck 28.7237 5.47932 1.89795
head 8.67566 3.47122 0.0574017
rclavicle 4.03533e-014 2.94201e-014
rhumerus -35.7579 15.8075 -85.2934
rradius 146.614
rwrist -48.0366
rhand 61.3268 -69.6998
rfingers 7.12502
rthumb 74.8359 -32.506
lclavicle 4.03533e-014 2.94201e-014
lhumerus -46.9995 -17.6472 102.248
lradius 144.588
lwrist 45.8805
lhand 68.7806 -13.3312
lfingers 7.12502
lthumb 74.0775 282.522
rfemur 0 0 0
rtibia 0
rfoot 0 0
rtoes 0
lfemur -17.2695 -43.7405 -1.90223
ltibia 21.5206
lfoot -31.4023 41.1474
ltoes -57.9544
